<?xml version="1.0" standalone="no"?>
<!DOCTYPE svg PUBLIC "-//W3C//DTD SVG 20010904//EN"
 "http://www.w3.org/TR/2001/REC-SVG-20010904/DTD/svg10.dtd">
<svg version="1.0" xmlns="http://www.w3.org/2000/svg"
 width="300.000000pt" height="300.000000pt" viewBox="0 0 300.000000 300.000000"
 preserveAspectRatio="xMidYMid meet">
<metadata>
Created by potrace 1.10, written by Peter Selinger 2001-2011
</metadata>
<g transform="translate(0.000000,300.000000) scale(0.100000,-0.100000)"
fill="#000000" stroke="none">
<path d="M1814 2354 c-16 -8 -204 -189 -416 -402 -412 -413 -412 -413 -393
-489 7 -32 760 -794 809 -820 62 -33 141 -9 170 51 20 42 20 69 1 110 -9 18
-165 181 -348 364 l-333 332 329 328 c181 180 335 340 344 356 19 37 12 109
-13 138 -21 23 -74 48 -101 48 -10 0 -32 -7 -49 -16z m111 -59 c27 -26 31 -54
14 -88 -6 -12 -159 -171 -340 -353 -247 -248 -329 -336 -329 -354 0 -18 83
-107 334 -359 184 -185 339 -348 345 -363 20 -52 -21 -108 -78 -108 -33 0 -59
23 -423 387 -213 213 -392 399 -399 415 -9 21 -9 35 0 56 7 16 184 200 394
410 368 367 384 382 420 382 27 0 45 -7 62 -25z"/>
</g>
</svg>
