<?xml version="1.0" standalone="no"?>
<!DOCTYPE svg PUBLIC "-//W3C//DTD SVG 20010904//EN"
 "http://www.w3.org/TR/2001/REC-SVG-20010904/DTD/svg10.dtd">
<svg version="1.0" xmlns="http://www.w3.org/2000/svg"
 width="300.000000pt" height="300.000000pt" viewBox="0 0 300.000000 300.000000"
 preserveAspectRatio="xMidYMid meet">
<metadata>
Created by potrace 1.10, written by Peter Selinger 2001-2011
</metadata>
<g transform="translate(0.000000,300.000000) scale(0.100000,-0.100000)"
fill="#000000" stroke="none">
<path d="M479 2866 c-155 -60 -254 -176 -279 -327 -14 -88 -14 -1991 1 -2078
25 -154 126 -272 282 -327 32 -11 202 -14 979 -14 1046 0 974 -5 1004 67 12
28 15 75 12 224 l-3 189 126 0 c114 0 129 2 154 22 57 45 55 1 55 1100 0 944
-1 1015 -18 1048 -36 73 0 70 -822 70 -463 0 -759 -4 -800 -11 -71 -11 -156
-46 -206 -84 l-31 -24 -50 48 c-27 26 -76 61 -109 76 -51 25 -73 29 -159 32
-67 2 -112 -2 -136 -11z m274 -59 c32 -15 81 -47 109 -72 28 -25 59 -45 70
-45 11 0 46 16 78 36 108 66 72 64 936 64 l783 0 15 -22 c14 -20 16 -137 16
-1054 l0 -1033 -26 -20 c-23 -18 -41 -21 -137 -21 -161 0 -157 5 -157 -214 0
-181 -9 -239 -40 -256 -12 -7 -340 -10 -947 -10 l-928 0 -57 24 c-104 43 -178
119 -212 219 -15 44 -16 152 -16 1097 0 1133 -3 1077 54 1173 26 45 86 102
136 127 92 48 227 51 323 7z"/>
<path d="M515 2675 c-44 -24 -84 -64 -108 -110 -22 -40 -22 -45 -25 -730 -2
-478 0 -701 8 -727 15 -52 35 -60 101 -43 71 19 147 19 222 -1 l62 -16 23 27
23 27 -3 716 -3 717 -28 48 c-41 69 -94 101 -176 105 -47 2 -75 -2 -96 -13z
m163 -39 c36 -19 78 -65 91 -99 8 -19 11 -262 11 -741 l0 -713 -52 18 c-33 11
-82 18 -128 18 -46 0 -95 -7 -127 -18 l-53 -18 0 696 c0 383 5 714 10 735 19
83 84 136 167 136 30 0 66 -6 81 -14z"/>
<path d="M1322 2410 c-43 -10 -98 -63 -113 -108 -22 -67 15 -148 85 -181 41
-20 58 -21 497 -21 452 0 455 0 499 23 117 58 122 206 10 271 -34 20 -51 21
-490 23 -250 1 -470 -2 -488 -7z m969 -53 c77 -52 67 -168 -16 -203 -50 -20
-910 -21 -959 0 -52 22 -79 63 -73 114 2 24 13 52 23 64 43 47 50 48 539 45
420 -2 462 -4 486 -20z"/>
<path d="M1284 1851 c-42 -26 -72 -66 -80 -107 -9 -50 20 -118 64 -152 l35
-27 488 0 c479 0 488 0 516 21 75 56 95 146 49 215 -48 70 -39 69 -568 69
-446 0 -475 -1 -504 -19z m1004 -35 c35 -18 56 -57 55 -100 -1 -45 -18 -73
-56 -96 -30 -19 -54 -20 -490 -20 -404 0 -463 2 -493 16 -59 28 -80 95 -49
154 32 62 14 60 533 60 388 0 478 -3 500 -14z"/>
<path d="M1294 1316 c-45 -20 -86 -78 -91 -129 -5 -52 26 -110 77 -145 34 -23
36 -23 300 -20 259 3 266 4 298 26 41 30 65 76 65 127 0 51 -24 97 -65 127
-32 22 -39 23 -293 25 -204 2 -267 0 -291 -11z m556 -41 c55 -28 75 -98 45
-155 -29 -56 -49 -60 -320 -60 -271 0 -291 4 -320 60 -29 56 -10 126 43 154
40 22 510 23 552 1z"/>
<path d="M515 915 c-43 -23 -84 -65 -106 -107 -16 -32 -19 -59 -19 -188 0
-168 5 -187 68 -253 67 -69 40 -67 952 -67 812 0 817 0 844 21 26 20 26 22 26
148 0 120 -1 129 -23 149 l-23 22 -678 0 -677 0 -24 24 c-13 13 -28 43 -34 67
-17 70 -55 132 -100 164 -34 24 -54 30 -109 33 -48 2 -76 -2 -97 -13z m164
-39 c52 -27 87 -78 100 -146 10 -49 20 -71 46 -97 l33 -33 696 0 696 0 0 -127
0 -128 -842 2 c-464 2 -853 5 -865 8 -30 7 -81 52 -100 89 -19 36 -29 194 -19
279 13 103 79 167 173 167 30 0 67 -7 82 -14z"/>
</g>
</svg>
