<?xml version="1.0" standalone="no"?>
<!DOCTYPE svg PUBLIC "-//W3C//DTD SVG 20010904//EN"
 "http://www.w3.org/TR/2001/REC-SVG-20010904/DTD/svg10.dtd">
<svg version="1.0" xmlns="http://www.w3.org/2000/svg"
 width="300.000000pt" height="300.000000pt" viewBox="0 0 300.000000 300.000000"
 preserveAspectRatio="xMidYMid meet">
<metadata>
Created by potrace 1.10, written by Peter Selinger 2001-2011
</metadata>
<g transform="translate(0.000000,300.000000) scale(0.100000,-0.100000)"
fill="#000000" stroke="none">
<path d="M1603 2975 c-410 -74 -754 -357 -864 -710 -27 -86 -26 -87 24 -69
156 55 407 83 600 65 230 -20 386 -64 582 -161 146 -73 261 -158 377 -278 186
-193 291 -411 319 -662 l11 -95 157 6 c86 3 157 6 159 7 13 8 31 77 26 98 -4
14 -55 82 -114 151 l-107 125 49 65 c94 124 156 278 165 408 7 108 -7 90 -45
-57 -34 -129 -68 -204 -149 -325 -42 -62 -53 -86 -48 -104 4 -12 53 -76 109
-143 56 -66 105 -126 109 -133 5 -7 -1 -21 -13 -33 -18 -18 -33 -20 -140 -20
-137 0 -120 -15 -140 123 -24 163 -109 354 -225 509 -287 382 -822 606 -1337
560 -73 -6 -164 -19 -203 -27 -142 -32 -129 -32 -121 1 15 62 88 193 151 271
84 105 198 196 333 266 125 64 223 97 397 131 69 14 133 30 143 35 25 15 -116
12 -205 -4z"/>
<path d="M1926 2975 c16 -7 80 -23 142 -35 283 -53 478 -154 654 -338 95 -100
160 -209 197 -332 16 -52 37 -122 47 -155 l19 -60 3 45 c8 102 -47 270 -130
397 -69 107 -212 244 -328 315 -169 105 -408 179 -567 177 -66 -1 -67 -1 -37
-14z"/>
<path d="M1075 2083 c-453 -59 -829 -308 -991 -657 -46 -100 -76 -222 -72
-293 l3 -58 16 55 c9 30 26 91 38 135 178 663 1081 990 1776 643 310 -155 510
-400 571 -698 21 -108 15 -282 -15 -385 -108 -371 -475 -681 -911 -770 -47 -9
-96 -24 -110 -32 -23 -13 -18 -14 60 -9 114 7 240 44 385 115 565 277 795 840
544 1334 -160 316 -514 551 -922 611 -94 14 -295 19 -372 9z"/>
<path d="M615 1261 c-107 -48 -154 -179 -104 -286 67 -142 248 -166 351 -46
68 80 73 172 14 258 -59 86 -167 117 -261 74z m158 -35 c137 -57 139 -255 3
-317 -70 -32 -135 -22 -189 29 -41 39 -57 75 -57 129 1 125 127 208 243 159z"/>
<path d="M1146 1260 c-55 -27 -72 -45 -101 -103 -42 -86 -30 -158 40 -235 147
-163 415 -11 355 202 -35 125 -181 192 -294 136z m178 -44 c104 -61 116 -202
23 -283 -82 -72 -208 -47 -264 52 -86 152 90 320 241 231z"/>
<path d="M1685 1261 c-44 -19 -100 -78 -117 -120 -17 -44 -12 -123 10 -168 78
-152 275 -163 369 -22 37 56 44 149 15 205 -55 107 -174 152 -277 105z m165
-40 c150 -79 109 -306 -59 -328 -88 -12 -179 54 -195 142 -14 72 33 162 99
191 43 19 115 17 155 -5z"/>
<path d="M13 935 c11 -146 80 -318 182 -454 55 -73 56 -74 37 -95 -212 -239
-225 -256 -225 -297 0 -45 22 -74 59 -82 31 -6 30 -2 -6 40 -16 18 -30 38 -30
43 0 5 24 35 53 67 122 134 197 227 197 246 0 11 -29 64 -65 117 -81 121 -128
226 -161 366 -32 139 -49 158 -41 49z"/>
</g>
</svg>
