<?xml version="1.0" standalone="no"?>
<!DOCTYPE svg PUBLIC "-//W3C//DTD SVG 20010904//EN"
 "http://www.w3.org/TR/2001/REC-SVG-20010904/DTD/svg10.dtd">
<svg version="1.0" xmlns="http://www.w3.org/2000/svg"
 width="300.000000pt" height="300.000000pt" viewBox="0 0 300.000000 300.000000"
 preserveAspectRatio="xMidYMid meet">
<metadata>
Created by potrace 1.10, written by Peter Selinger 2001-2011
</metadata>
<g transform="translate(0.000000,300.000000) scale(0.100000,-0.100000)"
fill="#000000" stroke="none">
<path d="M747 2636 c-172 -58 -308 -205 -362 -389 -21 -74 -22 -240 -1 -320
42 -155 154 -296 291 -365 103 -52 244 -68 356 -42 281 66 469 367 415 667
-39 222 -189 396 -395 457 -83 24 -220 21 -304 -8z m282 -31 c177 -47 319
-190 366 -370 22 -85 20 -237 -5 -316 -68 -223 -259 -369 -480 -369 -282 0
-500 230 -502 530 -1 161 49 287 158 396 62 63 152 115 230 133 60 14 173 12
233 -4z"/>
<path d="M2045 2566 c-164 -40 -309 -194 -346 -366 -18 -82 -7 -233 21 -300
112 -266 392 -383 634 -264 164 80 267 251 267 445 0 132 -29 219 -108 320
-113 145 -292 208 -468 165z m258 -56 c108 -41 194 -127 246 -248 33 -78 41
-217 16 -308 -34 -125 -124 -231 -244 -288 -60 -28 -75 -31 -166 -31 -91 0
-106 3 -165 31 -164 79 -260 231 -260 411 1 137 37 235 120 326 114 125 293
167 453 107z"/>
<path d="M1998 1480 c-123 -21 -235 -69 -345 -147 -35 -24 -63 -46 -63 -47 0
-2 39 -44 88 -92 170 -173 275 -376 303 -592 6 -48 13 -91 14 -97 2 -7 176 -9
504 -7 491 2 501 3 501 22 0 19 -10 20 -482 22 l-483 3 -16 80 c-47 240 -150
436 -313 596 l-57 56 32 27 c43 37 181 101 259 120 152 38 344 30 491 -19 265
-90 441 -290 513 -583 33 -134 45 -155 46 -81 0 70 -31 194 -70 278 -113 240
-349 418 -611 461 -73 11 -242 11 -311 0z"/>
<path d="M700 1300 c-371 -80 -662 -402 -687 -760 -3 -47 -2 -82 2 -78 4 4 22
67 41 140 21 80 50 164 73 210 114 225 307 378 561 445 82 21 335 24 425 4
305 -67 556 -306 634 -604 22 -85 36 -215 27 -252 l-6 -25 -885 0 c-878 0
-885 0 -885 -20 0 -20 7 -20 912 -20 l911 0 -6 123 c-19 369 -232 670 -565
799 -150 59 -383 75 -552 38z"/>
</g>
</svg>
