<?xml version="1.0" standalone="no"?>
<!DOCTYPE svg PUBLIC "-//W3C//DTD SVG 20010904//EN"
 "http://www.w3.org/TR/2001/REC-SVG-20010904/DTD/svg10.dtd">
<svg version="1.0" xmlns="http://www.w3.org/2000/svg"
 width="300.000000pt" height="300.000000pt" viewBox="0 0 300.000000 300.000000"
 preserveAspectRatio="xMidYMid meet">
<metadata>
Created by potrace 1.10, written by Peter Selinger 2001-2011
</metadata>
<g transform="translate(0.000000,300.000000) scale(0.100000,-0.100000)"
fill="#000000" stroke="none">
<path d="M1408 2672 c-42 -19 -1372 -1124 -1394 -1158 -20 -29 -6 -62 58 -138
64 -76 76 -86 103 -86 14 0 253 192 670 540 356 297 651 540 655 540 4 0 299
-243 655 -540 417 -348 656 -540 670 -540 27 0 39 10 103 86 60 72 77 107 62
135 -9 15 -273 241 -393 335 l-27 22 0 391 c0 378 -1 392 -20 411 -19 19 -33
20 -213 20 -158 0 -197 -3 -215 -16 -21 -15 -22 -20 -22 -215 l0 -199 -187
157 c-104 86 -208 175 -233 196 -25 22 -63 48 -85 58 -51 24 -138 24 -187 1z
m153 -33 c25 -8 114 -76 263 -200 124 -103 235 -190 247 -194 15 -5 28 -1 43
14 20 20 21 33 24 197 l3 175 27 10 c15 6 94 9 185 7 127 -2 160 -6 167 -18 6
-9 10 -170 10 -384 0 -361 0 -370 21 -400 12 -17 106 -101 210 -186 103 -85
190 -161 193 -169 6 -12 -65 -107 -103 -138 -30 -26 -45 -16 -237 146 -277
235 -1055 878 -1080 893 l-34 20 -34 -20 c-24 -14 -1081 -887 -1258 -1040 -10
-8 -26 -12 -40 -8 -24 6 -132 130 -126 146 7 20 1365 1141 1393 1149 43 13 82
13 126 0z"/>
<path d="M1464 2182 c-17 -15 -88 -74 -159 -132 -70 -58 -221 -182 -334 -275
-113 -94 -281 -233 -373 -309 l-168 -137 0 -465 c0 -503 0 -502 54 -538 22
-14 69 -16 401 -16 l375 0 0 355 0 355 240 0 240 0 0 -355 0 -355 375 0 c332
0 379 2 401 16 54 36 54 35 54 538 l0 465 -167 137 c-93 76 -244 202 -338 279
-93 78 -197 163 -231 191 -33 27 -122 100 -197 162 -75 61 -138 112 -139 112
-2 0 -17 -13 -34 -28z m334 -269 c158 -130 385 -317 505 -416 126 -104 219
-188 222 -200 3 -12 4 -222 3 -465 l-3 -444 -24 -19 c-22 -18 -41 -19 -370
-17 l-346 3 -5 331 c-5 308 -6 333 -24 353 -18 20 -28 21 -256 21 -228 0 -238
-1 -256 -21 -18 -20 -19 -45 -24 -353 l-5 -331 -346 -3 c-329 -2 -348 -1 -370
17 l-24 19 -3 455 c-2 423 -1 456 15 475 29 35 997 831 1011 831 7 1 142 -106
300 -236z"/>
</g>
</svg>
