<?xml version="1.0" standalone="no"?>
<!DOCTYPE svg PUBLIC "-//W3C//DTD SVG 20010904//EN"
 "http://www.w3.org/TR/2001/REC-SVG-20010904/DTD/svg10.dtd">
<svg version="1.0" xmlns="http://www.w3.org/2000/svg"
 width="300.000000pt" height="187.000000pt" viewBox="0 0 300.000000 187.000000"
 preserveAspectRatio="xMidYMid meet">
<metadata>
Created by potrace 1.10, written by Peter Selinger 2001-2011
</metadata>
<g transform="translate(0.000000,187.000000) scale(0.100000,-0.100000)"
fill="#000000" stroke="none">
<path d="M1338 1844 c-279 -50 -523 -228 -653 -475 -41 -78 -41 -79 -16 -79
13 0 29 20 52 66 109 212 331 385 574 445 123 30 285 30 410 0 239 -57 465
-233 574 -445 23 -46 39 -66 52 -66 25 0 25 1 -16 79 -184 350 -586 546 -977
475z"/>
<path d="M750 1169 c-14 -6 -35 -20 -47 -31 l-23 -21 0 27 c0 22 -4 27 -22 24
-20 -3 -24 -15 -44 -133 -13 -71 -26 -152 -30 -178 l-7 -49 29 4 c27 3 29 6
41 78 24 154 32 177 69 209 38 34 84 41 104 15 11 -12 9 -38 -9 -146 -13 -72
-25 -137 -28 -145 -4 -9 4 -13 26 -13 35 0 32 -6 56 139 9 52 23 107 31 122
26 50 107 77 134 44 10 -12 8 -39 -9 -138 -12 -68 -24 -133 -28 -145 -5 -19
-1 -22 25 -22 34 0 29 -15 63 178 17 96 19 129 10 148 -23 51 -115 57 -175 10
-32 -24 -34 -24 -39 -6 -9 35 -75 49 -127 29z"/>
<path d="M1302 1163 c-19 -9 -36 -22 -39 -30 -9 -24 -25 -14 -19 12 5 21 3 25
-17 25 -23 0 -25 -7 -51 -157 -15 -87 -30 -168 -33 -180 -4 -20 -1 -23 25 -23
26 0 31 4 35 33 37 213 39 217 72 253 29 30 39 35 72 32 36 -3 38 -5 41 -40 2
-20 -6 -88 -17 -150 -12 -62 -21 -116 -21 -120 0 -4 13 -8 29 -8 28 0 28 0 46
108 20 127 33 161 71 191 32 25 81 25 98 -1 9 -16 7 -39 -32 -271 -4 -26 -2
-28 24 -25 29 3 29 4 51 123 27 145 28 198 7 219 -35 36 -115 32 -161 -8 l-27
-24 -27 29 c-32 34 -75 38 -127 12z"/>
<path d="M1825 1166 c-101 -45 -152 -244 -81 -314 36 -37 119 -38 165 -4 25
18 31 20 31 7 0 -30 -38 -91 -65 -103 -55 -25 -125 -5 -125 36 0 7 -14 12 -31
12 -29 0 -31 -2 -24 -27 9 -39 32 -61 76 -74 81 -25 168 12 202 83 12 25 77
350 77 383 0 4 -10 5 -22 3 -15 -2 -24 -11 -26 -25 -4 -29 -8 -29 -35 3 -28
32 -96 41 -142 20z m124 -62 c58 -73 -14 -234 -103 -234 -23 0 -43 7 -57 21
-19 19 -21 30 -16 78 6 68 36 133 69 148 42 21 85 15 107 -13z"/>
<path d="M2210 1169 c-67 -27 -111 -103 -118 -205 -7 -112 23 -154 112 -154
36 0 52 6 81 31 30 27 35 28 35 12 0 -10 5 -24 12 -31 18 -18 75 -15 82 4 10
27 7 34 -16 31 -21 -2 -23 2 -20 43 2 25 13 96 25 158 l23 112 -23 0 c-13 0
-27 -9 -34 -22 -10 -19 -13 -20 -23 -6 -27 36 -84 47 -136 27z m111 -60 c19
-19 21 -30 17 -84 -7 -77 -39 -138 -84 -160 -41 -19 -46 -19 -78 6 -22 17 -26
28 -26 71 0 109 48 188 114 188 23 0 43 -7 57 -21z"/>
<path d="M650 574 c0 -3 16 -36 35 -73 132 -251 376 -426 662 -476 388 -68
785 128 968 476 41 78 41 79 16 79 -13 0 -29 -20 -52 -66 -48 -94 -136 -199
-226 -272 -322 -261 -777 -262 -1104 -2 -87 69 -183 185 -229 276 -23 44 -39
64 -51 64 -11 0 -19 -3 -19 -6z"/>
</g>
</svg>
