<?xml version="1.0" standalone="no"?>
<!DOCTYPE svg PUBLIC "-//W3C//DTD SVG 20010904//EN"
 "http://www.w3.org/TR/2001/REC-SVG-20010904/DTD/svg10.dtd">
<svg version="1.0" xmlns="http://www.w3.org/2000/svg"
 width="300.000000pt" height="300.000000pt" viewBox="0 0 300.000000 300.000000"
 preserveAspectRatio="xMidYMid meet">
<metadata>
Created by potrace 1.10, written by Peter Selinger 2001-2011
</metadata>
<g transform="translate(0.000000,300.000000) scale(0.100000,-0.100000)"
fill="#000000" stroke="none">
<path d="M1225 2974 c-524 -92 -981 -492 -1149 -1005 -41 -125 -68 -282 -64
-364 l3 -60 17 70 c9 39 24 108 33 155 9 47 34 139 56 205 73 217 177 383 349
555 222 223 476 352 809 411 64 12 129 27 146 34 28 13 26 13 -45 13 -41 0
-111 -6 -155 -14z"/>
<path d="M1573 2975 c20 -8 88 -23 150 -34 159 -29 276 -64 395 -121 125 -60
272 -154 272 -175 0 -24 -16 -18 -95 35 -144 97 -320 173 -490 212 -125 29
-404 36 -530 14 -144 -24 -261 -62 -390 -125 -290 -142 -516 -365 -654 -646
-105 -214 -139 -349 -148 -586 -6 -183 7 -297 54 -459 28 -101 113 -282 173
-371 58 -86 173 -223 214 -254 64 -49 84 -34 130 100 57 164 182 331 322 431
76 55 206 115 299 140 99 27 351 27 450 0 303 -81 538 -307 635 -611 39 -122
82 -113 219 49 157 185 258 387 312 625 30 128 37 374 15 516 -21 133 -78 309
-141 435 -25 50 -44 94 -41 97 22 22 83 -79 142 -235 35 -94 58 -185 88 -346
25 -135 38 -141 32 -16 -6 112 -37 259 -80 373 -41 108 -124 265 -146 277 -27
14 -57 4 -76 -25 -14 -22 -11 -30 50 -157 114 -233 151 -407 142 -668 -5 -175
-18 -248 -67 -394 -64 -191 -165 -358 -308 -509 l-84 -88 -18 71 c-21 82 -82
209 -136 284 -130 178 -318 307 -531 363 -132 35 -315 36 -446 4 -169 -41
-351 -144 -462 -263 -107 -114 -190 -259 -223 -388 l-18 -71 -85 90 c-142 151
-239 309 -306 501 -56 160 -67 235 -67 455 1 183 3 209 27 305 31 125 62 208
112 308 183 363 501 618 906 725 110 29 125 30 320 31 165 1 221 -3 290 -18
176 -38 357 -117 509 -221 88 -59 109 -65 134 -37 32 35 22 68 -36 111 -216
163 -549 283 -781 280 l-71 0 38 -14z"/>
<path d="M2542 2504 c-28 -19 -29 -57 -2 -84 27 -27 55 -25 79 6 26 33 26 49
1 74 -24 24 -48 25 -78 4z"/>
<path d="M1383 2365 c-90 -20 -178 -70 -254 -145 -333 -330 -94 -897 376 -892
90 0 153 15 231 54 320 159 388 587 135 838 -135 134 -306 185 -488 145z m257
-51 c81 -23 128 -50 193 -113 67 -63 98 -112 127 -196 28 -81 28 -223 -1 -307
-67 -200 -246 -328 -459 -328 -211 0 -391 128 -461 326 -17 49 -20 78 -17 174
3 109 5 119 40 190 110 221 337 321 578 254z"/>
<path d="M1365 2283 c-151 -54 -263 -174 -301 -323 -67 -262 129 -537 399
-557 298 -23 543 258 476 546 -29 127 -135 257 -256 313 -60 29 -80 33 -168
35 -77 3 -112 -1 -150 -14z m251 -38 c126 -37 235 -146 274 -273 62 -201 -30
-402 -228 -495 -61 -29 -76 -32 -162 -32 -87 0 -101 3 -165 33 -76 36 -152
103 -189 167 -131 222 -20 511 228 597 63 22 175 23 242 3z"/>
<path d="M11 1389 c-3 -268 146 -628 363 -878 251 -290 682 -502 1015 -501 84
1 65 14 -50 35 -228 43 -352 81 -491 151 -433 217 -717 613 -798 1114 -7 41
-18 90 -26 110 -13 35 -13 35 -13 -31z"/>
<path d="M2971 1418 c-5 -18 -19 -86 -30 -150 -73 -413 -298 -762 -636 -983
-189 -124 -353 -186 -622 -235 -135 -25 -161 -39 -72 -40 161 0 376 59 567
155 392 199 672 552 778 980 23 92 45 305 31 305 -3 0 -10 -15 -16 -32z"/>
<path d="M1326 1114 c-260 -58 -477 -226 -594 -459 -36 -71 -68 -167 -78 -230
-6 -45 -5 -47 37 -88 101 -96 356 -203 579 -243 115 -20 342 -20 467 1 222 38
520 170 593 262 26 33 22 73 -14 181 -95 277 -309 483 -586 562 -101 29 -305
36 -404 14z m379 -50 c207 -56 381 -184 491 -359 49 -80 100 -211 110 -286 l6
-44 -69 -41 c-155 -95 -327 -163 -488 -195 -94 -19 -416 -19 -510 0 -161 32
-333 100 -488 195 l-69 41 6 44 c10 75 61 206 112 288 118 190 330 332 554
372 76 14 272 5 345 -15z"/>
</g>
</svg>
