<?xml version="1.0" encoding="iso-8859-1"?>
<!-- Uploaded to: SVG Repo, www.svgrepo.com, Generator: SVG Repo Mixer Tools -->
<svg height="800px" width="800px" version="1.1" id="Layer_1" xmlns="http://www.w3.org/2000/svg" xmlns:xlink="http://www.w3.org/1999/xlink" 
	 viewBox="0 0 512 512" xml:space="preserve">
<circle style="fill:#273B7A;" cx="256" cy="256" r="256"/>
<path style="fill:#121149;" d="M511.747,244.927L364.358,97.363L149.501,416.497l95.427,95.249C248.599,511.903,252.288,512,256,512
	c141.384,0,256-114.616,256-256C512,252.288,511.903,248.601,511.747,244.927z"/>
<path style="fill:#FFFFFF;" d="M146.534,117.931l-0.002,276.137c0,13.024,10.559,23.583,23.583,23.583h171.77
	c13.024,0,23.581-10.557,23.581-23.581l0.002-276.137c0-13.024-10.559-23.583-23.583-23.583h-171.77
	C157.093,94.349,146.534,104.908,146.534,117.931z"/>
<path style="fill:#D8D8D8;" d="M341.885,94.349H254.85v323.301h87.033c13.024,0,23.581-10.559,23.581-23.581l0.003-276.137
	C365.468,104.908,354.911,94.349,341.885,94.349z"/>
<path style="fill:#FFC61B;" d="M341.885,87.454h-171.77c-16.806,0-30.479,13.672-30.479,30.477v276.137
	c0,16.806,13.672,30.479,30.479,30.479h171.77c16.806,0,30.479-13.672,30.479-30.477V117.932
	C372.364,101.126,358.691,87.454,341.885,87.454z M153.428,377.308l0.002-258.448h205.143l-0.002,258.448H153.428z"/>
<path style="fill:#D48B07;" d="M341.885,87.454H254.85v31.406h103.722l-0.002,258.448H254.852v47.237h87.033
	c16.806,0,30.479-13.672,30.479-30.477l0-276.135C372.364,101.126,358.691,87.454,341.885,87.454z"/>
<circle style="fill:#121149;" cx="256" cy="399.084" r="10.343"/>
</svg>